<?xml version="1.0" standalone="no"?>
<!DOCTYPE svg PUBLIC "-//W3C//DTD SVG 20010904//EN"
 "http://www.w3.org/TR/2001/REC-SVG-20010904/DTD/svg10.dtd">
<svg version="1.0" xmlns="http://www.w3.org/2000/svg"
 width="500.000000pt" height="500.000000pt" viewBox="0 0 500.000000 500.000000"
 preserveAspectRatio="xMidYMid meet">
<metadata>
Created by potrace 1.14, written by Peter Selinger 2001-2017
</metadata>
<g transform="translate(0.000000,500.000000) scale(0.100000,-0.100000)"
fill="#000000" stroke="none">
<path d="M2243 4315 c-559 -85 -1032 -403 -1323 -888 -176 -294 -259 -626
-247 -985 10 -296 67 -516 203 -782 332 -647 1033 -1038 1758 -981 570 45
1070 337 1388 811 358 534 404 1236 119 1815 -261 528 -743 891 -1332 1001
-118 22 -446 27 -566 9z m386 -235 c144 -13 239 -32 370 -76 538 -179 930
-621 1053 -1188 30 -138 33 -473 5 -611 -131 -643 -619 -1131 -1262 -1262
-140 -28 -473 -25 -615 6 -138 29 -233 62 -358 121 -396 189 -689 519 -826
931 -129 390 -104 811 70 1179 211 445 648 787 1119 875 172 32 286 39 444 25z"/>
<path d="M2920 3694 c-151 -32 -279 -121 -497 -346 -116 -120 -129 -149 -97
-215 25 -51 77 -78 129 -69 33 7 64 32 205 170 180 177 224 206 344 227 74 13
140 3 209 -32 61 -31 308 -282 337 -343 53 -112 31 -268 -54 -382 -24 -33
-110 -125 -192 -205 -172 -168 -235 -207 -347 -216 -115 -10 -170 8 -286 92
-19 14 -48 25 -65 25 -71 0 -135 -76 -122 -145 4 -18 23 -48 49 -72 103 -100
224 -147 377 -147 111 0 192 19 300 71 67 33 96 58 286 247 198 198 214 216
253 296 52 108 74 194 74 295 0 96 -22 186 -65 269 -41 79 -346 387 -425 429
-115 61 -275 81 -413 51z"/>
<path d="M2274 2979 c-152 -23 -286 -90 -424 -212 -94 -82 -316 -307 -372
-377 -48 -60 -112 -180 -138 -260 -28 -83 -38 -250 -20 -329 28 -126 58 -171
232 -348 182 -184 236 -219 378 -249 167 -35 374 18 543 139 93 68 417 398
419 428 4 71 -15 108 -69 134 -70 33 -88 22 -297 -183 -171 -168 -200 -192
-276 -230 -141 -71 -263 -77 -365 -18 -22 13 -99 84 -171 158 -105 108 -134
143 -147 183 -21 61 -22 155 -1 226 35 119 75 172 298 395 198 198 216 214
296 252 101 50 192 67 271 52 55 -11 77 -22 142 -73 71 -55 162 -36 194 40 29
72 -1 130 -101 195 -106 68 -256 98 -392 77z"/>
</g>
</svg>
